<mxfile host="app.diagrams.net" modified="2024-02-19T01:20:20.563Z" agent="Mozilla/5.0 (X11; Linux x86_64) AppleWebKit/537.36 (KHTML, like Gecko) Chrome/109.0.0.0 Safari/537.36" etag="-ciVuifvwbadtA2wQ3nc" version="23.1.1" type="github">
  <diagram name="Page-1" id="S-nj0chBetjyi2adVP0r">
    <mxGraphModel dx="727" dy="432" grid="1" gridSize="10" guides="1" tooltips="1" connect="1" arrows="1" fold="1" page="1" pageScale="1" pageWidth="850" pageHeight="1100" math="0" shadow="0">
      <root>
        <mxCell id="0" />
        <mxCell id="1" parent="0" />
        <mxCell id="ImDD-x2f6_fTZAwo4Lwu-1" value="Perpus Digital" style="swimlane;whiteSpace=wrap;html=1;" vertex="1" parent="1">
          <mxGeometry x="320" y="160" width="230" height="400" as="geometry" />
        </mxCell>
        <mxCell id="ImDD-x2f6_fTZAwo4Lwu-4" value="" style="ellipse;whiteSpace=wrap;html=1;" vertex="1" parent="ImDD-x2f6_fTZAwo4Lwu-1">
          <mxGeometry x="55" y="40" width="120" height="80" as="geometry" />
        </mxCell>
        <mxCell id="ImDD-x2f6_fTZAwo4Lwu-5" value="isi daftar pengunjung" style="text;html=1;strokeColor=none;fillColor=none;align=center;verticalAlign=middle;whiteSpace=wrap;rounded=0;" vertex="1" parent="ImDD-x2f6_fTZAwo4Lwu-1">
          <mxGeometry x="85" y="65" width="60" height="30" as="geometry" />
        </mxCell>
        <mxCell id="ImDD-x2f6_fTZAwo4Lwu-6" value="" style="ellipse;whiteSpace=wrap;html=1;" vertex="1" parent="ImDD-x2f6_fTZAwo4Lwu-1">
          <mxGeometry x="55" y="130" width="120" height="80" as="geometry" />
        </mxCell>
        <mxCell id="ImDD-x2f6_fTZAwo4Lwu-7" value="Rincian buku" style="text;html=1;strokeColor=none;fillColor=none;align=center;verticalAlign=middle;whiteSpace=wrap;rounded=0;" vertex="1" parent="ImDD-x2f6_fTZAwo4Lwu-1">
          <mxGeometry x="85" y="155" width="60" height="30" as="geometry" />
        </mxCell>
        <mxCell id="ImDD-x2f6_fTZAwo4Lwu-8" value="" style="ellipse;whiteSpace=wrap;html=1;" vertex="1" parent="ImDD-x2f6_fTZAwo4Lwu-1">
          <mxGeometry x="55" y="220" width="120" height="80" as="geometry" />
        </mxCell>
        <mxCell id="ImDD-x2f6_fTZAwo4Lwu-9" value="pencarian buku" style="text;html=1;strokeColor=none;fillColor=none;align=center;verticalAlign=middle;whiteSpace=wrap;rounded=0;" vertex="1" parent="ImDD-x2f6_fTZAwo4Lwu-1">
          <mxGeometry x="85" y="245" width="60" height="30" as="geometry" />
        </mxCell>
        <mxCell id="ImDD-x2f6_fTZAwo4Lwu-10" value="" style="ellipse;whiteSpace=wrap;html=1;" vertex="1" parent="ImDD-x2f6_fTZAwo4Lwu-1">
          <mxGeometry x="55" y="310" width="120" height="80" as="geometry" />
        </mxCell>
        <mxCell id="ImDD-x2f6_fTZAwo4Lwu-11" value="RIwayat buku" style="text;html=1;strokeColor=none;fillColor=none;align=center;verticalAlign=middle;whiteSpace=wrap;rounded=0;" vertex="1" parent="ImDD-x2f6_fTZAwo4Lwu-1">
          <mxGeometry x="85" y="330" width="60" height="30" as="geometry" />
        </mxCell>
        <mxCell id="ImDD-x2f6_fTZAwo4Lwu-18" value="" style="endArrow=none;html=1;rounded=0;exitX=0.978;exitY=0.695;exitDx=0;exitDy=0;exitPerimeter=0;" edge="1" parent="ImDD-x2f6_fTZAwo4Lwu-1" source="ImDD-x2f6_fTZAwo4Lwu-4">
          <mxGeometry width="50" height="50" relative="1" as="geometry">
            <mxPoint x="210" y="230" as="sourcePoint" />
            <mxPoint x="260" y="180" as="targetPoint" />
          </mxGeometry>
        </mxCell>
        <mxCell id="ImDD-x2f6_fTZAwo4Lwu-2" value="pengunjung" style="shape=umlActor;verticalLabelPosition=bottom;verticalAlign=top;html=1;outlineConnect=0;" vertex="1" parent="1">
          <mxGeometry x="240" y="320" width="30" height="60" as="geometry" />
        </mxCell>
        <mxCell id="ImDD-x2f6_fTZAwo4Lwu-3" value="pustakawan" style="shape=umlActor;verticalLabelPosition=bottom;verticalAlign=top;html=1;outlineConnect=0;" vertex="1" parent="1">
          <mxGeometry x="580" y="320" width="30" height="60" as="geometry" />
        </mxCell>
        <mxCell id="ImDD-x2f6_fTZAwo4Lwu-13" value="" style="endArrow=none;html=1;rounded=0;entryX=0.006;entryY=0.626;entryDx=0;entryDy=0;entryPerimeter=0;" edge="1" parent="1" target="ImDD-x2f6_fTZAwo4Lwu-4">
          <mxGeometry width="50" height="50" relative="1" as="geometry">
            <mxPoint x="270" y="340" as="sourcePoint" />
            <mxPoint x="320" y="290" as="targetPoint" />
          </mxGeometry>
        </mxCell>
        <mxCell id="ImDD-x2f6_fTZAwo4Lwu-14" value="" style="endArrow=none;html=1;rounded=0;entryX=0;entryY=0.5;entryDx=0;entryDy=0;" edge="1" parent="1" target="ImDD-x2f6_fTZAwo4Lwu-6">
          <mxGeometry width="50" height="50" relative="1" as="geometry">
            <mxPoint x="270" y="340" as="sourcePoint" />
            <mxPoint x="386" y="260" as="targetPoint" />
          </mxGeometry>
        </mxCell>
        <mxCell id="ImDD-x2f6_fTZAwo4Lwu-15" value="" style="endArrow=none;html=1;rounded=0;entryX=0;entryY=0.5;entryDx=0;entryDy=0;" edge="1" parent="1" target="ImDD-x2f6_fTZAwo4Lwu-8">
          <mxGeometry width="50" height="50" relative="1" as="geometry">
            <mxPoint x="270" y="340" as="sourcePoint" />
            <mxPoint x="385" y="340" as="targetPoint" />
          </mxGeometry>
        </mxCell>
        <mxCell id="ImDD-x2f6_fTZAwo4Lwu-16" value="" style="endArrow=none;html=1;rounded=0;entryX=0;entryY=0.5;entryDx=0;entryDy=0;" edge="1" parent="1" target="ImDD-x2f6_fTZAwo4Lwu-10">
          <mxGeometry width="50" height="50" relative="1" as="geometry">
            <mxPoint x="270" y="340" as="sourcePoint" />
            <mxPoint x="385" y="430" as="targetPoint" />
          </mxGeometry>
        </mxCell>
        <mxCell id="ImDD-x2f6_fTZAwo4Lwu-19" value="" style="endArrow=none;html=1;rounded=0;exitX=1;exitY=0.5;exitDx=0;exitDy=0;entryX=0;entryY=0.3333333333333333;entryDx=0;entryDy=0;entryPerimeter=0;" edge="1" parent="1" source="ImDD-x2f6_fTZAwo4Lwu-6" target="ImDD-x2f6_fTZAwo4Lwu-3">
          <mxGeometry width="50" height="50" relative="1" as="geometry">
            <mxPoint x="502" y="266" as="sourcePoint" />
            <mxPoint x="590" y="350" as="targetPoint" />
          </mxGeometry>
        </mxCell>
        <mxCell id="ImDD-x2f6_fTZAwo4Lwu-20" value="" style="endArrow=none;html=1;rounded=0;exitX=1;exitY=0.5;exitDx=0;exitDy=0;entryX=0;entryY=0.3333333333333333;entryDx=0;entryDy=0;entryPerimeter=0;" edge="1" parent="1" source="ImDD-x2f6_fTZAwo4Lwu-8" target="ImDD-x2f6_fTZAwo4Lwu-3">
          <mxGeometry width="50" height="50" relative="1" as="geometry">
            <mxPoint x="505" y="340" as="sourcePoint" />
            <mxPoint x="590" y="350" as="targetPoint" />
          </mxGeometry>
        </mxCell>
        <mxCell id="ImDD-x2f6_fTZAwo4Lwu-21" value="" style="endArrow=none;html=1;rounded=0;exitX=1;exitY=0.5;exitDx=0;exitDy=0;" edge="1" parent="1" source="ImDD-x2f6_fTZAwo4Lwu-10">
          <mxGeometry width="50" height="50" relative="1" as="geometry">
            <mxPoint x="505" y="430" as="sourcePoint" />
            <mxPoint x="580" y="340" as="targetPoint" />
          </mxGeometry>
        </mxCell>
      </root>
    </mxGraphModel>
  </diagram>
</mxfile>
